<svg width="119" height="64" viewBox="0 0 119 64" fill="none" xmlns="http://www.w3.org/2000/svg">
<g clip-path="url(#clip0_1154_33005)">
<path d="M117.67 31.3652C117.496 33.5537 116.234 39.3363 114.037 39.3363C113.243 39.3363 112.397 37.2836 112.397 32.2997C112.397 30.5585 112.518 28.446 112.703 26.5451C116.996 21.5212 118.665 14.4128 118.665 10.7987C118.665 8.4345 117.855 7.59187 116.879 7.59187C116.061 7.59187 115.162 8.10703 114.299 9.07346C111.437 12.1165 109.885 19.0732 109.349 24.6961C108.869 24.2768 108.305 24.0611 107.676 24.0611C105.814 24.0851 104.056 25.4109 102.73 27.799C101.577 29.8717 100.891 32.8109 100.891 35.195C100.891 35.9098 100.952 36.5688 101.065 37.1718C100.496 38.4737 99.7827 39.4521 98.9603 39.4521C98.0774 39.4521 97.3317 37.2197 97.2027 33.5497C98.9039 30.6424 103.665 20.8304 103.608 10.7348C103.588 7.79953 102.238 7.57589 101.762 7.57589C97.2913 7.57589 94.1147 19.221 93.9857 29.68C93.9937 31.7846 94.1308 33.6455 94.3928 35.2469C93.5946 37.5711 92.2079 39.4281 90.2325 39.4281C87.459 39.4281 87.3139 36.2253 87.2413 34.4682C90.3212 32.8029 92.5868 29.692 92.5868 26.6769C92.5868 25.0395 91.8692 24.0731 90.4341 24.0731C86.7092 24.0731 83.4196 29.4523 83.7179 35.0193C83.7421 35.4386 83.7905 35.838 83.859 36.2213C83.847 36.2533 83.8389 36.2852 83.8268 36.3132C83.4075 37.4833 82.9802 39.0328 81.6862 39.0328C81.3435 39.0328 79.7431 38.4936 80.6421 33.1423C81.0371 30.7902 81.4685 28.5458 82.4844 25.2592C82.565 24.9916 82.6819 24.2248 81.404 24.0771C80.4042 23.9613 79.2593 24.2807 78.8078 25.6905C78.2233 27.5394 77.671 29.7439 77.3243 31.8045C77.2679 32.152 77.2155 32.5034 77.1671 32.8588C76.5019 37.8627 71.8982 38.889 70.8702 37.659L71.2854 34.1607C74.9055 29.8357 79.4004 20.6906 79.3238 10.8066C79.2996 8.00719 77.9854 7.61183 77.5098 7.60784C72.1038 7.53596 69.0077 21.3375 67.5807 34.4602C67.3186 35.3108 66.988 36.0576 66.5648 36.7046C65.2223 38.7013 64.3435 38.917 64.0291 38.917C63.7388 38.917 63.1865 38.917 63.1865 37.3675C63.1865 35.818 63.6783 34.2446 64.2548 32.128C64.7386 30.3589 65.1498 28.0866 65.1498 27.176C65.1498 25.1114 64.2347 24.0771 62.4286 24.097C62.0416 24.097 61.4692 24.1809 60.8081 24.2688C60.1026 24.3686 59.2923 24.5723 58.74 24.5843C58.3006 23.0228 57.6838 22.3439 56.8654 22.3479C55.9947 22.3559 55.3134 23.1346 55.3134 24.137C55.3134 25.4349 56.5712 26.2256 57.6395 26.3334C57.7523 27.0682 57.8007 28.0706 57.8007 29.1448C57.8007 32.136 57.188 35.6702 56.164 37.4753C56.1559 37.4913 56.1559 37.5073 56.1519 37.5192C55.6561 38.4377 54.9707 39.2963 54.1161 39.2963C53.3461 39.2963 53.072 38.0224 53.072 36.9282C53.072 35.3268 53.3219 33.2222 53.5396 31.3652C53.7049 29.9396 53.8299 28.7095 53.85 27.9747C53.8783 26.7447 52.9994 25.97 51.7417 26.0698C51.6006 26.0778 51.4675 26.1098 51.3305 26.1257C50.7782 24.7999 49.8349 24.0491 48.7021 24.0491C46.8073 24.0491 45.0134 25.3909 43.667 27.831C42.4979 29.9475 41.7964 32.6591 41.7964 35.0872C41.7964 35.7421 41.8488 36.3531 41.9456 36.9162C41.4336 38.0224 40.579 39.2963 39.5349 39.2963C39.1963 39.2963 38.0876 39.1725 38.0876 33.7454C38.0876 30.4907 38.7125 26.5531 39.2245 23.8015C42.5785 23.5419 45.6786 21.8767 47.4846 20.2792C47.8998 19.8919 47.9966 19.4965 47.8998 19.2449C47.7507 18.8416 47.1621 18.7378 46.5292 19.1251C43.7315 20.8264 40.5709 21.4134 39.7324 21.3335C40.2887 18.1747 41.1474 15.2035 41.4336 14.4407C41.5223 14.2051 41.482 13.9455 41.2885 13.7898C41.2764 13.7818 41.2562 13.7658 41.228 13.7419C41.0224 13.5901 40.2645 13.1468 39.5712 13.1389C38.7891 13.1349 38.1562 13.658 37.874 14.5326C37.6321 15.2434 37.0314 17.4598 36.3018 21.1099C35.0077 21.022 33.6169 20.455 32.7744 19.8C32.0528 19.2449 31.7061 18.7737 31.2909 19.4087C30.8515 20.0596 30.8756 21.4214 31.9399 22.3C32.8429 23.0428 34.4151 23.6338 35.8221 23.7456C35.0803 28.8693 34.9231 31.1017 34.9231 33.4179C34.9231 35.7341 35.048 41.361 39.0229 41.361C40.6112 41.361 41.7682 40.3706 42.6108 38.9968C43.3969 40.5144 44.7272 41.361 46.4848 41.361C47.9321 41.361 49.2019 40.3946 50.2017 38.5536C50.7056 40.123 51.8586 41.361 53.6082 41.361C55.4706 41.361 56.7284 39.9912 57.5709 38.2461C57.583 38.2261 57.6032 38.2141 57.6112 38.1941C58.2562 36.9122 58.6553 35.3547 58.9013 33.8572C59.2117 32.152 59.2721 30.5665 59.2721 29.2287C59.2721 28.2782 59.2076 27.2879 59.0948 26.3294C59.4535 26.3055 59.8244 26.2695 60.2114 26.2376C60.796 26.1777 61.3926 26.1257 61.9731 26.1178C62.0013 26.1178 62.0013 26.2256 62.0013 26.3334C62.0013 27.3797 61.6143 29.1448 61.0943 31.0218C60.4775 33.2502 59.9091 36.5967 59.9091 37.7748C59.9091 40.766 61.4208 41.3929 62.8036 41.3929C64.275 41.3929 65.8835 40.3786 67.1896 38.7013C66.6293 45.4264 66.5083 51.5285 66.7381 54.891C66.9598 58.0978 67.2904 63.5929 70.0478 63.9722C73.5752 64.4515 75.8529 57.6825 75.8045 50.0149C75.7763 45.2467 74.192 41.2771 71.366 39.6797C72.8939 40.1829 75.3812 39.2125 77.0502 37.0879C77.3042 39.488 78.2838 41.357 80.7025 41.357C82.5247 41.357 83.7583 40.0751 84.6008 38.4218C85.5885 40.2827 87.3703 41.357 89.7851 41.357C92.1998 41.357 93.8567 39.8754 94.9814 37.7548C95.7191 40.0591 96.864 41.361 98.412 41.361C99.7545 41.361 100.782 40.4744 101.702 39.0408C102.476 40.5383 103.782 41.373 105.511 41.373C107.241 41.373 108.873 39.7836 109.881 37.024C110.615 39.8794 111.864 41.373 113.542 41.373C115.376 41.373 116.815 40.0631 117.819 37.4833C118.633 35.3787 118.903 32.6911 119.012 31.4411C119.093 30.4347 117.774 30.2431 117.686 31.3612M116.21 10.2995C116.698 9.39294 117.069 9.46882 117.069 10.8985C117.069 13.7059 115.791 19.1531 113.03 23.5859C113.779 17.7673 115.033 12.4999 116.21 10.2995ZM101.089 10.2875C101.496 9.52872 102.036 9.40492 102.036 10.8905C102.036 15.0318 100.133 23.2704 97.2309 30.4068C97.8557 17.8352 99.9923 12.3441 101.093 10.2875M90.4422 25.8582C90.7284 25.8582 90.7687 26.3654 90.7768 26.4852C90.805 28.2902 89.4384 31.1376 87.2776 32.6831C87.5598 28.7655 89.2207 25.8582 90.4462 25.8582M76.647 10.1956C77.03 9.353 77.675 9.2332 77.7355 10.6988C78.0056 17.1204 74.8894 26.6968 71.495 31.3493C73.2527 18.3624 75.6795 12.3601 76.647 10.1956ZM50.1453 32.2758C50.0808 32.8987 50.0203 33.5417 49.976 34.2006C49.5043 36.6926 48.3957 39.3483 46.7025 39.3483C46.0817 39.3483 45.4528 37.8826 45.4528 35.0872C45.4528 29.8038 47.2629 25.7104 48.827 25.7104C49.4841 25.7104 50.2259 27.2639 50.3388 29.8677C50.3065 30.6344 50.2299 31.4331 50.1493 32.2758M73.8735 53.3216C73.2325 58.8885 72.0917 62.1312 70.7452 62.0354C70.0639 61.9795 69.6447 61.4084 69.5882 58.1936C69.4552 50.59 70.5477 40.8538 70.5477 40.8538C73.9501 43.0143 74.4339 48.3856 73.8735 53.3216ZM105.733 39.3882C105.12 39.3882 104.499 37.9505 104.499 35.195C104.499 29.9955 106.281 25.6865 107.813 25.6865C108.406 25.6865 108.914 26.7288 109.151 28.41V29.4803C109.151 30.3669 109.151 31.5569 109.204 32.3676C108.918 35.7581 107.712 39.3842 105.733 39.3842M80.634 19.6962C80.634 19.6283 80.6864 19.5724 80.7509 19.5724C83.0044 19.5724 84.3267 18.1667 84.3267 16.0182C84.3267 15.9543 84.3791 15.9024 84.4476 15.9024C84.5161 15.9024 84.5645 15.9543 84.5645 16.0182C84.5645 18.1787 85.8868 19.5724 88.1403 19.5724C88.2048 19.5724 88.2612 19.6283 88.2612 19.6922C88.2612 19.7561 88.2048 19.812 88.1403 19.812C85.8868 19.812 84.5645 21.1339 84.5645 23.3662C84.5645 23.4341 84.5161 23.486 84.4476 23.486C84.3791 23.486 84.3267 23.4341 84.3267 23.3662C84.3267 21.1658 83.0084 19.812 80.7509 19.812C80.6824 19.812 80.634 19.7601 80.634 19.6962ZM29.0212 23.0028C36.5235 34.1447 28.5657 45.9296 15.4116 45.9296C3.06772 45.9296 -2.50353 37.1958 1.12061 31.1136C2.42272 28.9252 5.51876 27.184 7.86497 26.8046C8.25198 26.7447 8.48983 26.8046 8.58658 27.0003C8.6672 27.1521 8.58658 27.3158 8.30035 27.5195C7.36912 28.1944 6.11942 29.7159 5.49054 31.0258C2.95485 36.2812 5.54698 43.7132 14.8593 43.7132C23.5105 43.7132 29.896 35.5704 23.8733 25.966C19.5033 19.0053 12.9847 11.0702 21.0514 3.47056C27.1507 -2.28009 38.91 -0.419117 38.3215 5.48329C38.0876 7.83148 35.1891 11.1062 34.9473 11.3298C34.5764 11.6692 34.0644 11.198 34.3385 10.7707C36.3018 7.6957 35.0359 4.94816 33.625 3.77806C31.1296 1.70144 26.6912 1.48978 23.8612 3.814C17.3103 9.18927 25.3084 17.4758 29.0212 22.9948" fill="#C30E2E"/>
<path d="M81.0857 50.7301L81.7307 49.9633C82.1782 50.3267 82.6458 50.5624 83.2102 50.5624C83.6577 50.5624 83.9278 50.3866 83.9278 50.0991V50.0831C83.9278 49.8076 83.7584 49.6678 82.928 49.4562C81.9282 49.2046 81.2832 48.929 81.2832 47.9546V47.9386C81.2832 47.0481 82.0048 46.457 83.0207 46.457C83.7423 46.457 84.3591 46.6807 84.863 47.084L84.2946 47.8987C83.8552 47.5952 83.4238 47.4155 83.0046 47.4155C82.5853 47.4155 82.3677 47.6072 82.3677 47.8428V47.8588C82.3677 48.1822 82.5813 48.2861 83.44 48.5057C84.4478 48.7653 85.0162 49.1247 85.0162 49.9793V49.9953C85.0162 50.9697 84.2624 51.5208 83.1941 51.5208C82.4402 51.5208 81.6823 51.2612 81.0857 50.7341" fill="#7A6E66"/>
<path d="M86.8909 49.3368V46.5254H87.9834V49.3089C87.9834 50.1116 88.3865 50.5229 89.0557 50.5229C89.7249 50.5229 90.128 50.1235 90.128 49.3408V46.5254H91.2205V49.3009C91.2205 50.7905 90.3779 51.5213 89.0436 51.5213C87.7092 51.5213 86.8949 50.7825 86.8949 49.3368" fill="#7A6E66"/>
<path d="M92.9136 46.5296H94.0827L95.1106 49.8602L96.2233 46.5137H97.1585L98.2752 49.8602L99.3032 46.5296H100.444L98.7469 51.4816H97.7995L96.6788 48.2628L95.5581 51.4816H94.6067L92.9136 46.5296Z" fill="#7A6E66"/>
<path d="M105.596 49.0012V48.9852C105.596 48.1426 104.971 47.4397 104.092 47.4397C103.213 47.4397 102.605 48.1266 102.605 48.9732V48.9892C102.605 49.8318 103.23 50.5347 104.108 50.5347C104.987 50.5347 105.596 49.8478 105.596 49.0052M101.464 49.0052V48.9892C101.464 47.5914 102.577 46.4453 104.108 46.4453C105.64 46.4453 106.741 47.5755 106.741 48.9732V48.9892C106.741 50.3869 105.628 51.533 104.096 51.533C102.564 51.533 101.464 50.4029 101.464 49.0052Z" fill="#7A6E66"/>
<path d="M108.422 46.5293H109.426L111.756 49.5564V46.5293H112.832V51.4453H111.901L109.498 48.3184V51.4453H108.422V46.5293Z" fill="#7A6E66"/>
</g>
<defs>
<clipPath id="clip0_1154_33005">
<rect width="119" height="64" fill="white"/>
</clipPath>
</defs>
</svg>
