<svg width="28" height="28" viewBox="0 0 28 28" fill="none" xmlns="http://www.w3.org/2000/svg">
<path class="st0" d="M15,11.8c-1.1,0-2,0.9-2,1.9s0.9,1.9,2,1.9c1.1,0,2-0.9,2-1.9S16.1,11.8,15,11.8z M15,14.6 c-0.5,0-0.9-0.4-0.9-0.9c0-0.5,0.4-0.9,0.9-0.9c0.5,0,0.9,0.4,0.9,0.9C15.9,14.2,15.5,14.6,15,14.6z" fill="#FFFFFF"/>
<path class="st0" d="M8.7,11.8c-0.4,0-0.8,0.2-1.1,0.4v-1.6H6.5v5h1.1v-0.4c0.3,0.3,0.7,0.4,1.1,0.4c1,0,1.8-0.9,1.8-1.9 S9.7,11.8,8.7,11.8z M8.5,14.7c-0.4,0-0.8-0.2-0.9-0.6c0-0.1-0.1-0.2-0.1-0.4s0-0.3,0.1-0.4c0.2-0.4,0.5-0.6,0.9-0.6 c0.5,0,1,0.4,1,1C9.5,14.3,9.1,14.7,8.5,14.7z" fill="#FFFFFF"/>
<path class="st0" d="M20.4,11.8v0.3c-0.3-0.2-0.7-0.4-1.1-0.4c-1,0-1.8,0.8-1.8,1.9s0.8,1.9,1.8,1.9c0.4,0,0.8-0.1,1.1-0.4v0.5 c0,0-0.1,0.5-0.9,0.5v1c0,0,0.8,0.1,1.6-0.6c0,0,0.3-0.4,0.4-0.8v-3.8H20.4z M19.5,14.6c-0.6,0-1-0.4-1-1s0.5-1,1-1 c0.4,0,0.7,0.2,0.9,0.5c0.1,0.1,0.1,0.3,0.1,0.4s0,0.3-0.1,0.4C20.2,14.4,19.9,14.6,19.5,14.6z" fill="#FFFFFF"/>
<path class="st0" d="M10.6,10.5v1c0,0,0.5,0.1,0.6,0.6v3.5h1.1v-3.5v0c-0.1-0.5-0.4-0.9-0.4-0.9C11.4,10.4,10.6,10.5,10.6,10.5z" fill="#FFFFFF"/>
</svg>
