<svg width="28" height="28" viewBox="0 0 28 28" fill="none" xmlns="http://www.w3.org/2000/svg">
<path class="st0" d="M16.5,8h-5.1C9.6,8,8,9.6,8,11.5v5.1c0,1.9,1.6,3.5,3.5,3.5h5.1c1.9,0,3.5-1.6,3.5-3.5v-5.1 C20,9.5,18.4,8,16.5,8z M18.9,16.6c0,1.3-1,2.3-2.3,2.3h-5.2c-1.3,0-2.3-1-2.3-2.3v-5.2c0-1.3,1-2.3,2.3-2.3h5.2 c1.3,0,2.3,1,2.3,2.3V16.6z" fill="#FFFFFF"/>
<path class="st0" d="M14,10.9c-1.7,0-3.1,1.4-3.1,3.1c0,1.7,1.4,3.1,3.1,3.1c1.7,0,3.1-1.4,3.1-3.1C17.1,12.3,15.7,10.9,14,10.9z M14,16c-1.1,0-2-0.9-2-2c0-1.1,0.9-2,2-2c1.1,0,2,0.9,2,2C16,15.1,15.1,16,14,16z" fill="#FFFFFF"/>
<path class="st0" d="M17.2,11.5c0.4,0,0.7-0.3,0.7-0.7c0-0.4-0.3-0.7-0.7-0.7s-0.7,0.3-0.7,0.7C16.5,11.2,16.8,11.5,17.2,11.5z" fill="#FFFFFF"/>
</svg>
