<svg width="28" height="28" viewBox="0 0 28 28" fill="none" xmlns="http://www.w3.org/2000/svg">
<path class="st0" d="M20.8,11c-0.3-1-0.8-1.4-1.7-1.5C18.6,9.4,16,9.3,14,9.3c-2,0-4.6,0.1-5.1,0.2C8,9.6,7.5,10,7.2,11 C7.1,11.4,7,13.2,7,13.9v0.2c0,0.7,0.1,2.6,0.2,2.9c0.3,1,0.8,1.4,1.7,1.5c0.5,0.1,3.1,0.2,5.1,0.2l0,0c2,0,4.6-0.1,5.1-0.2 c0.9-0.1,1.4-0.5,1.7-1.5c0.1-0.3,0.2-2.2,0.2-2.9v-0.2C21,13.2,20.9,11.4,20.8,11z" fill-rule="evenodd" clip-rule="evenodd" fill="#FFFFFF"/>
<path class="st1" d="M15.8,14l-2.3,1.7v-3.5L15.8,14z" fill="#786E6B"/>
</svg>
